<svg width="100" height="100" viewBox="0 0 100 100" fill="none" xmlns="http://www.w3.org/2000/svg"><path d="M50 81.25V75H18.219l8.062-8.094-4.406-4.406L6.25 78.125 21.875 93.75l4.406-4.406-8.062-8.094H50Zm0-37.5V37.5H18.219l8.062-8.094L21.875 25 6.25 40.625 21.875 56.25l4.406-4.406-8.062-8.094H50Zm0-25V25h31.781l-8.062 8.094 4.406 4.406L93.75 21.875 78.125 6.25l-4.406 4.406 8.062 8.094H50Zm0 37.5v6.25h31.781l-8.062 8.094L78.125 75 93.75 59.375 78.125 43.75l-4.406 4.406 8.062 8.094H50Z" fill="#003A6D"/></svg>