<svg width="100" height="100" viewBox="0 0 100 100" fill="none" xmlns="http://www.w3.org/2000/svg"><path d="M56.25 56.25h-25v6.25h25v-6.25Zm12.5-15.625h-37.5v6.25h37.5v-6.25Zm-21.875 31.25H31.25v6.25h15.625v-6.25Z" fill="#003A6D"/><path d="M78.125 15.625H68.75V12.5a6.25 6.25 0 0 0-6.25-6.25h-25a6.25 6.25 0 0 0-6.25 6.25v3.125h-9.375a6.25 6.25 0 0 0-6.25 6.25V87.5a6.25 6.25 0 0 0 6.25 6.25h56.25a6.25 6.25 0 0 0 6.25-6.25V21.875a6.25 6.25 0 0 0-6.25-6.25ZM37.5 12.5h25V25h-25V12.5Zm40.625 75h-56.25V21.875h9.375v9.375h37.5v-9.375h9.375V87.5Z" fill="#003A6D"/></svg>