<svg width="100" height="100" viewBox="0 0 100 100" fill="none" xmlns="http://www.w3.org/2000/svg"><path d="M86.594 29.031 70.969 13.406a3.124 3.124 0 0 0-2.219-.906h-50a6.25 6.25 0 0 0-6.25 6.25v62.5a6.25 6.25 0 0 0 6.25 6.25h62.5a6.25 6.25 0 0 0 6.25-6.25v-50a3.123 3.123 0 0 0-.906-2.219ZM37.5 18.75h25v12.5h-25v-12.5Zm25 62.5h-25v-25h25v25Zm6.25 0v-25A6.25 6.25 0 0 0 62.5 50h-25a6.25 6.25 0 0 0-6.25 6.25v25h-12.5v-62.5h12.5v12.5a6.25 6.25 0 0 0 6.25 6.25h25a6.25 6.25 0 0 0 6.25-6.25V20.031l12.5 12.5V81.25h-12.5Z" fill="#003A6D"/></svg>